# MagicaVoxel @ Ephtracy

# group
o 

# material
mtllib coin.mtl
usemtl palette

# normals
vn -1 0 0
vn 1 0 0
vn 0 0 1
vn 0 0 -1
vn 0 -1 0
vn 0 1 0

# texcoords
vt 0.0175781 0.5
vt 0.0214844 0.5
vt 0.185547 0.5
vt 0.841797 0.5

# verts
v -1 0 0.2
v -1 0 0
v -1 0 -0.4
v -1 0 -0.6
v -1 0.1 0.2
v -1 0.1 0
v -1 0.1 -0.4
v -1 0.1 -0.6
v -0.9 0 0.4
v -0.9 0 0.2
v -0.9 0 -0.6
v -0.9 0 -0.8
v -0.9 0.1 0.4
v -0.9 0.1 0.2
v -0.9 0.1 -0.6
v -0.9 0.1 -0.8
v -0.7 0 0.5
v -0.7 0 0.4
v -0.7 0 -0.8
v -0.7 0 -0.9
v -0.7 0.1 0.5
v -0.7 0.1 0.4
v -0.7 0.1 -0.8
v -0.7 0.1 -0.9
v 1.19209e-07 0 0.5
v 1.19209e-07 0 0.4
v 1.19209e-07 0 -0.8
v 1.19209e-07 0 -0.9
v 1.19209e-07 0.1 0.5
v 1.19209e-07 0.1 0.4
v 1.19209e-07 0.1 -0.8
v 1.19209e-07 0.1 -0.9
v 0.2 0 0.4
v 0.2 0 0.2
v 0.2 0 -0.6
v 0.2 0 -0.8
v 0.2 0.1 0.4
v 0.2 0.1 0.2
v 0.2 0.1 -0.6
v 0.2 0.1 -0.8
v 0.3 0 0.2
v 0.3 0 -0.6
v 0.3 0.1 0.2
v 0.3 0.1 -0.6
v -0.7 0 0.5
v -0.7 0.1 0.5
v 1.19209e-07 0 0.5
v 1.19209e-07 0.1 0.5
v -0.9 0 0.4
v -0.9 0.1 0.4
v -0.7 0 0.4
v -0.7 0.1 0.4
v 1.19209e-07 0 0.4
v 1.19209e-07 0.1 0.4
v 0.2 0 0.4
v 0.2 0.1 0.4
v -1 0 0.2
v -1 0.1 0.2
v -0.9 0 0.2
v -0.9 0.1 0.2
v 0.2 0 0.2
v 0.2 0.1 0.2
v 0.3 0 0.2
v 0.3 0.1 0.2
v -1 0 -0.6
v -1 0.1 -0.6
v -0.9 0 -0.6
v -0.9 0.1 -0.6
v 0.2 0 -0.6
v 0.2 0.1 -0.6
v 0.3 0 -0.6
v 0.3 0.1 -0.6
v -0.9 0 -0.8
v -0.9 0.1 -0.8
v -0.7 0 -0.8
v -0.7 0.1 -0.8
v 1.19209e-07 0 -0.8
v 1.19209e-07 0.1 -0.8
v 0.2 0 -0.8
v 0.2 0.1 -0.8
v -0.7 0 -0.9
v -0.7 0.1 -0.9
v 1.19209e-07 0 -0.9
v 1.19209e-07 0.1 -0.9
v -0.7 0 0.5
v 1.19209e-07 0 0.5
v -0.9 0 0.4
v -0.7 0 0.4
v -0.6 0 0.4
v -0.0999999 0 0.4
v 1.19209e-07 0 0.4
v 0.2 0 0.4
v -0.8 0 0.3
v -0.6 0 0.3
v -0.5 0 0.3
v -0.2 0 0.3
v -0.0999999 0 0.3
v 0.1 0 0.3
v -1 0 0.2
v -0.9 0 0.2
v -0.7 0 0.2
v -0.5 0 0.2
v -0.4 0 0.2
v -0.3 0 0.2
v -0.2 0 0.2
v 1.19209e-07 0 0.2
v 0.2 0 0.2
v 0.3 0 0.2
v -0.9 0 0.1
v -0.8 0 0.1
v 0.1 0 0.1
v 0.2 0 0.1
v -1 0 0
v -0.9 0 0
v -0.8 0 0
v -0.7 0 0
v -0.6 0 0
v -0.4 0 0
v -0.3 0 0
v -0.0999999 0 0
v 1.19209e-07 0 0
v 0.1 0 0
v -0.5 0 -0.1
v -0.2 0 -0.1
v -0.5 0 -0.3
v -0.2 0 -0.3
v -1 0 -0.4
v -0.9 0 -0.4
v -0.8 0 -0.4
v -0.7 0 -0.4
v -0.6 0 -0.4
v -0.4 0 -0.4
v -0.3 0 -0.4
v -0.0999999 0 -0.4
v 1.19209e-07 0 -0.4
v 0.1 0 -0.4
v -0.9 0 -0.5
v -0.8 0 -0.5
v 0.1 0 -0.5
v 0.2 0 -0.5
v -1 0 -0.6
v -0.9 0 -0.6
v -0.7 0 -0.6
v -0.5 0 -0.6
v -0.4 0 -0.6
v -0.3 0 -0.6
v -0.2 0 -0.6
v 1.19209e-07 0 -0.6
v 0.2 0 -0.6
v 0.3 0 -0.6
v -0.8 0 -0.7
v -0.6 0 -0.7
v -0.5 0 -0.7
v -0.2 0 -0.7
v -0.0999999 0 -0.7
v 0.1 0 -0.7
v -0.9 0 -0.8
v -0.7 0 -0.8
v -0.6 0 -0.8
v -0.0999999 0 -0.8
v 1.19209e-07 0 -0.8
v 0.2 0 -0.8
v -0.7 0 -0.9
v 1.19209e-07 0 -0.9
v -0.7 0.1 0.5
v 1.19209e-07 0.1 0.5
v -0.9 0.1 0.4
v -0.7 0.1 0.4
v -0.6 0.1 0.4
v -0.0999999 0.1 0.4
v 1.19209e-07 0.1 0.4
v 0.2 0.1 0.4
v -0.8 0.1 0.3
v -0.6 0.1 0.3
v -0.5 0.1 0.3
v -0.2 0.1 0.3
v -0.0999999 0.1 0.3
v 0.1 0.1 0.3
v -1 0.1 0.2
v -0.9 0.1 0.2
v -0.7 0.1 0.2
v -0.5 0.1 0.2
v -0.4 0.1 0.2
v -0.3 0.1 0.2
v -0.2 0.1 0.2
v 1.19209e-07 0.1 0.2
v 0.2 0.1 0.2
v 0.3 0.1 0.2
v -0.9 0.1 0.1
v -0.8 0.1 0.1
v 0.1 0.1 0.1
v 0.2 0.1 0.1
v -1 0.1 0
v -0.9 0.1 0
v -0.8 0.1 0
v -0.7 0.1 0
v -0.6 0.1 0
v -0.4 0.1 0
v -0.3 0.1 0
v -0.0999999 0.1 0
v 1.19209e-07 0.1 0
v 0.1 0.1 0
v -0.5 0.1 -0.1
v -0.2 0.1 -0.1
v -0.5 0.1 -0.3
v -0.2 0.1 -0.3
v -1 0.1 -0.4
v -0.9 0.1 -0.4
v -0.8 0.1 -0.4
v -0.7 0.1 -0.4
v -0.6 0.1 -0.4
v -0.4 0.1 -0.4
v -0.3 0.1 -0.4
v -0.0999999 0.1 -0.4
v 1.19209e-07 0.1 -0.4
v 0.1 0.1 -0.4
v -0.9 0.1 -0.5
v -0.8 0.1 -0.5
v 0.1 0.1 -0.5
v 0.2 0.1 -0.5
v -1 0.1 -0.6
v -0.9 0.1 -0.6
v -0.7 0.1 -0.6
v -0.5 0.1 -0.6
v -0.4 0.1 -0.6
v -0.3 0.1 -0.6
v -0.2 0.1 -0.6
v 1.19209e-07 0.1 -0.6
v 0.2 0.1 -0.6
v 0.3 0.1 -0.6
v -0.8 0.1 -0.7
v -0.6 0.1 -0.7
v -0.5 0.1 -0.7
v -0.2 0.1 -0.7
v -0.0999999 0.1 -0.7
v 0.1 0.1 -0.7
v -0.9 0.1 -0.8
v -0.7 0.1 -0.8
v -0.6 0.1 -0.8
v -0.0999999 0.1 -0.8
v 1.19209e-07 0.1 -0.8
v 0.2 0.1 -0.8
v -0.7 0.1 -0.9
v 1.19209e-07 0.1 -0.9

# faces
f 5/1/1 2/1/1 1/1/1
f 6/2/1 3/2/1 2/2/1
f 6/1/1 2/1/1 5/1/1
f 7/1/1 4/1/1 3/1/1
f 7/2/1 3/2/1 6/2/1
f 8/1/1 4/1/1 7/1/1
f 13/1/1 10/1/1 9/1/1
f 14/1/1 10/1/1 13/1/1
f 15/1/1 12/1/1 11/1/1
f 16/1/1 12/1/1 15/1/1
f 21/1/1 18/1/1 17/1/1
f 22/1/1 18/1/1 21/1/1
f 23/1/1 20/1/1 19/1/1
f 24/1/1 20/1/1 23/1/1
f 25/1/2 26/1/2 29/1/2
f 29/1/2 26/1/2 30/1/2
f 27/1/2 28/1/2 31/1/2
f 31/1/2 28/1/2 32/1/2
f 33/1/2 34/1/2 37/1/2
f 37/1/2 34/1/2 38/1/2
f 35/1/2 36/1/2 39/1/2
f 39/1/2 36/1/2 40/1/2
f 41/1/2 42/1/2 43/1/2
f 43/1/2 42/1/2 44/1/2
f 47/1/3 46/1/3 45/1/3
f 48/1/3 46/1/3 47/1/3
f 51/1/3 50/1/3 49/1/3
f 52/1/3 50/1/3 51/1/3
f 55/1/3 54/1/3 53/1/3
f 56/1/3 54/1/3 55/1/3
f 59/1/3 58/1/3 57/1/3
f 60/1/3 58/1/3 59/1/3
f 63/1/3 62/1/3 61/1/3
f 64/1/3 62/1/3 63/1/3
f 65/1/4 66/1/4 67/1/4
f 67/1/4 66/1/4 68/1/4
f 69/1/4 70/1/4 71/1/4
f 71/1/4 70/1/4 72/1/4
f 73/1/4 74/1/4 75/1/4
f 75/1/4 74/1/4 76/1/4
f 77/1/4 78/1/4 79/1/4
f 79/1/4 78/1/4 80/1/4
f 81/1/4 82/1/4 83/1/4
f 83/1/4 82/1/4 84/1/4
f 88/1/5 86/1/5 85/1/5
f 89/1/5 86/1/5 88/1/5
f 90/1/5 86/1/5 89/1/5
f 91/1/5 86/1/5 90/1/5
f 93/1/5 88/1/5 87/1/5
f 93/1/5 89/1/5 88/1/5
f 94/3/5 90/3/5 89/3/5
f 94/1/5 89/1/5 93/1/5
f 95/3/5 90/3/5 94/3/5
f 96/3/5 90/3/5 95/3/5
f 97/1/5 92/1/5 91/1/5
f 97/3/5 90/3/5 96/3/5
f 97/1/5 91/1/5 90/1/5
f 98/1/5 92/1/5 97/1/5
f 100/1/5 93/1/5 87/1/5
f 101/3/5 95/3/5 94/3/5
f 101/3/5 94/3/5 93/3/5
f 102/1/5 96/1/5 95/1/5
f 102/3/5 95/3/5 101/3/5
f 103/1/5 96/1/5 102/1/5
f 104/1/5 96/1/5 103/1/5
f 105/3/5 97/3/5 96/3/5
f 105/1/5 96/1/5 104/1/5
f 105/3/5 98/3/5 97/3/5
f 106/3/5 98/3/5 105/3/5
f 107/1/5 92/1/5 98/1/5
f 109/1/5 100/1/5 99/1/5
f 109/1/5 93/1/5 100/1/5
f 110/3/5 101/3/5 93/3/5
f 110/1/5 93/1/5 109/1/5
f 111/1/5 108/1/5 107/1/5
f 111/3/5 98/3/5 106/3/5
f 111/1/5 107/1/5 98/1/5
f 112/1/5 108/1/5 111/1/5
f 113/1/5 109/1/5 99/1/5
f 114/3/5 110/3/5 109/3/5
f 114/1/5 109/1/5 113/1/5
f 115/3/5 101/3/5 110/3/5
f 115/3/5 110/3/5 114/3/5
f 116/1/5 103/1/5 102/1/5
f 116/3/5 101/3/5 115/3/5
f 116/1/5 102/1/5 101/1/5
f 117/1/5 103/1/5 116/1/5
f 118/4/5 104/4/5 103/4/5
f 118/1/5 103/1/5 117/1/5
f 119/1/5 106/1/5 105/1/5
f 119/4/5 104/4/5 118/4/5
f 119/1/5 105/1/5 104/1/5
f 120/1/5 106/1/5 119/1/5
f 121/3/5 112/3/5 111/3/5
f 121/1/5 106/1/5 120/1/5
f 121/3/5 111/3/5 106/3/5
f 122/3/5 112/3/5 121/3/5
f 123/4/5 118/4/5 117/4/5
f 123/4/5 120/4/5 119/4/5
f 123/4/5 119/4/5 118/4/5
f 124/4/5 120/4/5 123/4/5
f 125/4/5 123/4/5 117/4/5
f 125/2/5 124/2/5 123/2/5
f 126/4/5 120/4/5 124/4/5
f 126/2/5 124/2/5 125/2/5
f 127/2/5 114/2/5 113/2/5
f 128/3/5 115/3/5 114/3/5
f 128/2/5 114/2/5 127/2/5
f 129/1/5 117/1/5 116/1/5
f 129/3/5 115/3/5 128/3/5
f 129/1/5 116/1/5 115/1/5
f 130/1/5 117/1/5 129/1/5
f 131/4/5 126/4/5 125/4/5
f 131/1/5 117/1/5 130/1/5
f 131/4/5 125/4/5 117/4/5
f 132/4/5 126/4/5 131/4/5
f 133/4/5 126/4/5 132/4/5
f 134/4/5 120/4/5 126/4/5
f 134/4/5 126/4/5 133/4/5
f 134/1/5 122/1/5 121/1/5
f 134/1/5 121/1/5 120/1/5
f 135/1/5 122/1/5 134/1/5
f 136/3/5 112/3/5 122/3/5
f 136/1/5 122/1/5 135/1/5
f 137/1/5 128/1/5 127/1/5
f 137/3/5 130/3/5 129/3/5
f 137/3/5 129/3/5 128/3/5
f 138/3/5 130/3/5 137/3/5
f 139/3/5 112/3/5 136/3/5
f 139/3/5 136/3/5 135/3/5
f 140/1/5 108/1/5 112/1/5
f 140/3/5 112/3/5 139/3/5
f 141/1/5 138/1/5 137/1/5
f 141/1/5 137/1/5 127/1/5
f 142/1/5 138/1/5 141/1/5
f 143/3/5 130/3/5 138/3/5
f 143/1/5 132/1/5 131/1/5
f 143/1/5 131/1/5 130/1/5
f 144/1/5 132/1/5 143/1/5
f 145/4/5 133/4/5 132/4/5
f 145/1/5 132/1/5 144/1/5
f 146/1/5 135/1/5 134/1/5
f 146/4/5 133/4/5 145/4/5
f 146/1/5 134/1/5 133/1/5
f 147/1/5 135/1/5 146/1/5
f 148/3/5 139/3/5 135/3/5
f 148/1/5 135/1/5 147/1/5
f 149/1/5 108/1/5 140/1/5
f 149/1/5 140/1/5 139/1/5
f 150/1/5 108/1/5 149/1/5
f 151/3/5 144/3/5 143/3/5
f 151/1/5 138/1/5 142/1/5
f 151/3/5 143/3/5 138/3/5
f 152/3/5 144/3/5 151/3/5
f 153/1/5 147/1/5 146/1/5
f 153/3/5 144/3/5 152/3/5
f 153/1/5 145/1/5 144/1/5
f 153/1/5 146/1/5 145/1/5
f 154/3/5 148/3/5 147/3/5
f 154/1/5 147/1/5 153/1/5
f 155/3/5 148/3/5 154/3/5
f 156/1/5 149/1/5 139/1/5
f 156/3/5 148/3/5 155/3/5
f 156/3/5 139/3/5 148/3/5
f 157/1/5 152/1/5 151/1/5
f 157/1/5 151/1/5 142/1/5
f 158/1/5 152/1/5 157/1/5
f 159/3/5 155/3/5 154/3/5
f 159/1/5 152/1/5 158/1/5
f 159/3/5 153/3/5 152/3/5
f 159/3/5 154/3/5 153/3/5
f 160/1/5 156/1/5 155/1/5
f 160/3/5 155/3/5 159/3/5
f 161/1/5 156/1/5 160/1/5
f 162/1/5 149/1/5 156/1/5
f 162/1/5 156/1/5 161/1/5
f 163/1/5 161/1/5 160/1/5
f 163/1/5 159/1/5 158/1/5
f 163/1/5 160/1/5 159/1/5
f 164/1/5 161/1/5 163/1/5
f 165/1/6 166/1/6 168/1/6
f 168/1/6 166/1/6 169/1/6
f 169/1/6 166/1/6 170/1/6
f 170/1/6 166/1/6 171/1/6
f 167/1/6 168/1/6 173/1/6
f 168/1/6 169/1/6 173/1/6
f 169/3/6 170/3/6 174/3/6
f 173/1/6 169/1/6 174/1/6
f 174/3/6 170/3/6 175/3/6
f 175/3/6 170/3/6 176/3/6
f 171/1/6 172/1/6 177/1/6
f 176/3/6 170/3/6 177/3/6
f 170/1/6 171/1/6 177/1/6
f 177/1/6 172/1/6 178/1/6
f 167/1/6 173/1/6 180/1/6
f 174/3/6 175/3/6 181/3/6
f 173/3/6 174/3/6 181/3/6
f 175/1/6 176/1/6 182/1/6
f 181/3/6 175/3/6 182/3/6
f 182/1/6 176/1/6 183/1/6
f 183/1/6 176/1/6 184/1/6
f 176/3/6 177/3/6 185/3/6
f 184/1/6 176/1/6 185/1/6
f 177/3/6 178/3/6 185/3/6
f 185/3/6 178/3/6 186/3/6
f 178/1/6 172/1/6 187/1/6
f 179/1/6 180/1/6 189/1/6
f 180/1/6 173/1/6 189/1/6
f 173/3/6 181/3/6 190/3/6
f 189/1/6 173/1/6 190/1/6
f 187/1/6 188/1/6 191/1/6
f 186/3/6 178/3/6 191/3/6
f 178/1/6 187/1/6 191/1/6
f 191/1/6 188/1/6 192/1/6
f 179/1/6 189/1/6 193/1/6
f 189/3/6 190/3/6 194/3/6
f 193/1/6 189/1/6 194/1/6
f 190/3/6 181/3/6 195/3/6
f 194/3/6 190/3/6 195/3/6
f 182/1/6 183/1/6 196/1/6
f 195/3/6 181/3/6 196/3/6
f 181/1/6 182/1/6 196/1/6
f 196/1/6 183/1/6 197/1/6
f 183/4/6 184/4/6 198/4/6
f 197/1/6 183/1/6 198/1/6
f 185/1/6 186/1/6 199/1/6
f 198/4/6 184/4/6 199/4/6
f 184/1/6 185/1/6 199/1/6
f 199/1/6 186/1/6 200/1/6
f 191/3/6 192/3/6 201/3/6
f 200/1/6 186/1/6 201/1/6
f 186/3/6 191/3/6 201/3/6
f 201/3/6 192/3/6 202/3/6
f 197/4/6 198/4/6 203/4/6
f 199/4/6 200/4/6 203/4/6
f 198/4/6 199/4/6 203/4/6
f 203/4/6 200/4/6 204/4/6
f 197/4/6 203/4/6 205/4/6
f 203/2/6 204/2/6 205/2/6
f 204/4/6 200/4/6 206/4/6
f 205/2/6 204/2/6 206/2/6
f 193/2/6 194/2/6 207/2/6
f 194/3/6 195/3/6 208/3/6
f 207/2/6 194/2/6 208/2/6
f 196/1/6 197/1/6 209/1/6
f 208/3/6 195/3/6 209/3/6
f 195/1/6 196/1/6 209/1/6
f 209/1/6 197/1/6 210/1/6
f 205/4/6 206/4/6 211/4/6
f 210/1/6 197/1/6 211/1/6
f 197/4/6 205/4/6 211/4/6
f 211/4/6 206/4/6 212/4/6
f 212/4/6 206/4/6 213/4/6
f 206/4/6 200/4/6 214/4/6
f 213/4/6 206/4/6 214/4/6
f 201/1/6 202/1/6 214/1/6
f 200/1/6 201/1/6 214/1/6
f 214/1/6 202/1/6 215/1/6
f 202/3/6 192/3/6 216/3/6
f 215/1/6 202/1/6 216/1/6
f 207/1/6 208/1/6 217/1/6
f 209/3/6 210/3/6 217/3/6
f 208/3/6 209/3/6 217/3/6
f 217/3/6 210/3/6 218/3/6
f 216/3/6 192/3/6 219/3/6
f 215/3/6 216/3/6 219/3/6
f 192/1/6 188/1/6 220/1/6
f 219/3/6 192/3/6 220/3/6
f 217/1/6 218/1/6 221/1/6
f 207/1/6 217/1/6 221/1/6
f 221/1/6 218/1/6 222/1/6
f 218/3/6 210/3/6 223/3/6
f 211/1/6 212/1/6 223/1/6
f 210/1/6 211/1/6 223/1/6
f 223/1/6 212/1/6 224/1/6
f 212/4/6 213/4/6 225/4/6
f 224/1/6 212/1/6 225/1/6
f 214/1/6 215/1/6 226/1/6
f 225/4/6 213/4/6 226/4/6
f 213/1/6 214/1/6 226/1/6
f 226/1/6 215/1/6 227/1/6
f 215/3/6 219/3/6 228/3/6
f 227/1/6 215/1/6 228/1/6
f 220/1/6 188/1/6 229/1/6
f 219/1/6 220/1/6 229/1/6
f 229/1/6 188/1/6 230/1/6
f 223/3/6 224/3/6 231/3/6
f 222/1/6 218/1/6 231/1/6
f 218/3/6 223/3/6 231/3/6
f 231/3/6 224/3/6 232/3/6
f 226/1/6 227/1/6 233/1/6
f 232/3/6 224/3/6 233/3/6
f 224/1/6 225/1/6 233/1/6
f 225/1/6 226/1/6 233/1/6
f 227/3/6 228/3/6 234/3/6
f 233/1/6 227/1/6 234/1/6
f 234/3/6 228/3/6 235/3/6
f 219/1/6 229/1/6 236/1/6
f 235/3/6 228/3/6 236/3/6
f 228/3/6 219/3/6 236/3/6
f 231/1/6 232/1/6 237/1/6
f 222/1/6 231/1/6 237/1/6
f 237/1/6 232/1/6 238/1/6
f 234/3/6 235/3/6 239/3/6
f 238/1/6 232/1/6 239/1/6
f 232/3/6 233/3/6 239/3/6
f 233/3/6 234/3/6 239/3/6
f 235/1/6 236/1/6 240/1/6
f 239/3/6 235/3/6 240/3/6
f 240/1/6 236/1/6 241/1/6
f 236/1/6 229/1/6 242/1/6
f 241/1/6 236/1/6 242/1/6
f 240/1/6 241/1/6 243/1/6
f 238/1/6 239/1/6 243/1/6
f 239/1/6 240/1/6 243/1/6
f 243/1/6 241/1/6 244/1/6
