# MagicaVoxel @ Ephtracy

# group
o 

# material
mtllib Nenufar.mtl
usemtl palette

# normals
vn -1 0 0
vn 1 0 0
vn 0 0 1
vn 0 0 -1
vn 0 -1 0
vn 0 1 0

# texcoords
vt 0.791016 0.5
vt 0.904297 0.5

# verts
v -0.8 0 0.2
v -0.8 0 -5.96046e-08
v -0.8 0 -0.2
v -0.8 0 -0.4
v -0.8 0.1 0.2
v -0.8 0.1 -5.96046e-08
v -0.8 0.1 -0.2
v -0.8 0.1 -0.4
v -0.5 0 -0.4
v -0.5 0 -0.5
v -0.5 0.1 -0.4
v -0.5 0.1 -0.5
v -0.4 0 -0.5
v -0.4 0 -0.8
v -0.4 0.1 -0.5
v -0.4 0.1 -0.8
v 0.2 0 0.2
v 0.2 0 -0.8
v 0.2 0.1 0.2
v 0.2 0.1 -0.8
v -0.8 0 0.2
v -0.8 0.1 0.2
v 0.2 0 0.2
v 0.2 0.1 0.2
v -0.8 0 -0.4
v -0.8 0.1 -0.4
v -0.5 0 -0.4
v -0.5 0.1 -0.4
v -0.5 0 -0.5
v -0.5 0.1 -0.5
v -0.4 0 -0.5
v -0.4 0.1 -0.5
v -0.4 0 -0.8
v -0.4 0.1 -0.8
v -0.2 0 -0.8
v -0.2 0.1 -0.8
v 5.96046e-08 0 -0.8
v 5.96046e-08 0.1 -0.8
v 0.2 0 -0.8
v 0.2 0.1 -0.8
v -0.8 0 0.2
v 0.2 0 0.2
v -0.8 0 -5.96046e-08
v 5.96046e-08 0 -5.96046e-08
v -0.8 0 -0.2
v -0.2 0 -0.2
v -0.8 0 -0.4
v -0.5 0 -0.4
v -0.5 0 -0.5
v -0.4 0 -0.5
v -0.4 0 -0.8
v -0.2 0 -0.8
v 5.96046e-08 0 -0.8
v 0.2 0 -0.8
v -0.8 0.1 0.2
v 0.2 0.1 0.2
v -0.8 0.1 -5.96046e-08
v 5.96046e-08 0.1 -5.96046e-08
v -0.8 0.1 -0.2
v -0.2 0.1 -0.2
v -0.8 0.1 -0.4
v -0.5 0.1 -0.4
v -0.5 0.1 -0.5
v -0.4 0.1 -0.5
v -0.4 0.1 -0.8
v -0.2 0.1 -0.8
v 5.96046e-08 0.1 -0.8
v 0.2 0.1 -0.8

# faces
f 5/1/1 2/1/1 1/1/1
f 6/2/1 3/2/1 2/2/1
f 6/1/1 2/1/1 5/1/1
f 7/1/1 4/1/1 3/1/1
f 7/2/1 3/2/1 6/2/1
f 8/1/1 4/1/1 7/1/1
f 11/1/1 10/1/1 9/1/1
f 12/1/1 10/1/1 11/1/1
f 15/1/1 14/1/1 13/1/1
f 16/1/1 14/1/1 15/1/1
f 17/1/2 18/1/2 19/1/2
f 19/1/2 18/1/2 20/1/2
f 23/1/3 22/1/3 21/1/3
f 24/1/3 22/1/3 23/1/3
f 25/1/4 26/1/4 27/1/4
f 27/1/4 26/1/4 28/1/4
f 29/1/4 30/1/4 31/1/4
f 31/1/4 30/1/4 32/1/4
f 33/1/4 34/1/4 35/1/4
f 35/1/4 34/1/4 36/1/4
f 35/2/4 36/2/4 37/2/4
f 37/2/4 36/2/4 38/2/4
f 37/1/4 38/1/4 39/1/4
f 39/1/4 38/1/4 40/1/4
f 43/1/5 42/1/5 41/1/5
f 44/1/5 42/1/5 43/1/5
f 45/2/5 44/2/5 43/2/5
f 46/2/5 44/2/5 45/2/5
f 47/1/5 46/1/5 45/1/5
f 48/1/5 46/1/5 47/1/5
f 49/1/5 46/1/5 48/1/5
f 50/1/5 46/1/5 49/1/5
f 51/1/5 46/1/5 50/1/5
f 52/2/5 44/2/5 46/2/5
f 52/1/5 46/1/5 51/1/5
f 53/1/5 42/1/5 44/1/5
f 53/2/5 44/2/5 52/2/5
f 54/1/5 42/1/5 53/1/5
f 55/1/6 56/1/6 57/1/6
f 57/1/6 56/1/6 58/1/6
f 57/2/6 58/2/6 59/2/6
f 59/2/6 58/2/6 60/2/6
f 59/1/6 60/1/6 61/1/6
f 61/1/6 60/1/6 62/1/6
f 62/1/6 60/1/6 63/1/6
f 63/1/6 60/1/6 64/1/6
f 64/1/6 60/1/6 65/1/6
f 60/2/6 58/2/6 66/2/6
f 65/1/6 60/1/6 66/1/6
f 58/1/6 56/1/6 67/1/6
f 66/2/6 58/2/6 67/2/6
f 67/1/6 56/1/6 68/1/6
