# MagicaVoxel @ Ephtracy

# group
o 

# material
mtllib tree.mtl
usemtl palette

# normals
vn -1 0 0
vn 1 0 0
vn 0 0 1
vn 0 0 -1
vn 0 -1 0
vn 0 1 0

# texcoords
vt 0.537109 0.5
vt 0.791016 0.5
vt 0.794922 0.5

# verts
v -0.7 1.1 0.5
v -0.7 1.1 -0.7
v -0.7 1.8 0.5
v -0.7 1.8 -0.7
v -0.7 1.9 0.5
v -0.7 1.9 -0.7
v -0.7 2.4 0.5
v -0.7 2.4 -0.7
v -0.7 2.5 0.5
v -0.7 2.5 -0.7
v -0.7 3 0.5
v -0.7 3 -0.7
v -0.6 3 0.4
v -0.6 3 -0.6
v -0.6 3.1 0.4
v -0.6 3.1 -0.6
v -0.6 3.4 0.4
v -0.6 3.4 -0.6
v -0.5 1 0.3
v -0.5 1 -0.5
v -0.5 1.1 0.3
v -0.5 1.1 -0.5
v -0.4 0 0.2
v -0.4 0 -0.4
v -0.4 1 0.2
v -0.4 1 -0.4
v 0.1 0 0.2
v 0.1 0 -0.4
v 0.1 1 0.2
v 0.1 1 -0.4
v 0.2 1 0.3
v 0.2 1 -0.5
v 0.2 1.1 0.3
v 0.2 1.1 -0.5
v 0.3 3 0.4
v 0.3 3 -0.6
v 0.3 3.1 0.4
v 0.3 3.1 -0.6
v 0.3 3.4 0.4
v 0.3 3.4 -0.6
v 0.4 1.1 0.5
v 0.4 1.1 -0.7
v 0.4 1.8 0.5
v 0.4 1.8 -0.7
v 0.4 1.9 0.5
v 0.4 1.9 -0.7
v 0.4 2.4 0.5
v 0.4 2.4 -0.7
v 0.4 2.5 0.5
v 0.4 2.5 -0.7
v 0.4 3 0.5
v 0.4 3 -0.7
v -0.7 1.1 0.5
v -0.7 1.8 0.5
v -0.7 1.9 0.5
v -0.7 2.4 0.5
v -0.7 2.5 0.5
v -0.7 3 0.5
v 0.4 1.1 0.5
v 0.4 1.8 0.5
v 0.4 1.9 0.5
v 0.4 2.4 0.5
v 0.4 2.5 0.5
v 0.4 3 0.5
v -0.6 3 0.4
v -0.6 3.1 0.4
v -0.6 3.4 0.4
v 0.3 3 0.4
v 0.3 3.1 0.4
v 0.3 3.4 0.4
v -0.5 1 0.3
v -0.5 1.1 0.3
v 0.2 1 0.3
v 0.2 1.1 0.3
v -0.4 0 0.2
v -0.4 1 0.2
v 0.1 0 0.2
v 0.1 1 0.2
v -0.4 0 -0.4
v -0.4 1 -0.4
v 0.1 0 -0.4
v 0.1 1 -0.4
v -0.5 1 -0.5
v -0.5 1.1 -0.5
v 0.2 1 -0.5
v 0.2 1.1 -0.5
v -0.6 3 -0.6
v -0.6 3.1 -0.6
v -0.6 3.4 -0.6
v 0.3 3 -0.6
v 0.3 3.1 -0.6
v 0.3 3.4 -0.6
v -0.7 1.1 -0.7
v -0.7 1.8 -0.7
v -0.7 1.9 -0.7
v -0.7 2.4 -0.7
v -0.7 2.5 -0.7
v -0.7 3 -0.7
v 0.4 1.1 -0.7
v 0.4 1.8 -0.7
v 0.4 1.9 -0.7
v 0.4 2.4 -0.7
v 0.4 2.5 -0.7
v 0.4 3 -0.7
v -0.4 0 0.2
v 0.1 0 0.2
v -0.4 0 -0.4
v 0.1 0 -0.4
v -0.5 1 0.3
v 0.2 1 0.3
v -0.4 1 0.2
v 0.1 1 0.2
v -0.4 1 -0.4
v 0.1 1 -0.4
v -0.5 1 -0.5
v 0.2 1 -0.5
v -0.7 1.1 0.5
v 0.4 1.1 0.5
v -0.5 1.1 0.3
v 0.2 1.1 0.3
v -0.5 1.1 -0.5
v 0.2 1.1 -0.5
v -0.7 1.1 -0.7
v 0.4 1.1 -0.7
v -0.7 3 0.5
v 0.4 3 0.5
v -0.6 3 0.4
v 0.3 3 0.4
v -0.6 3 -0.6
v 0.3 3 -0.6
v -0.7 3 -0.7
v 0.4 3 -0.7
v -0.6 3.4 0.4
v 0.3 3.4 0.4
v -0.6 3.4 -0.6
v 0.3 3.4 -0.6

# faces
f 3/3/1 2/3/1 1/3/1
f 4/3/1 2/3/1 3/3/1
f 5/2/1 4/2/1 3/2/1
f 6/2/1 4/2/1 5/2/1
f 7/3/1 6/3/1 5/3/1
f 8/3/1 6/3/1 7/3/1
f 9/2/1 8/2/1 7/2/1
f 10/2/1 8/2/1 9/2/1
f 11/3/1 10/3/1 9/3/1
f 12/3/1 10/3/1 11/3/1
f 15/2/1 14/2/1 13/2/1
f 16/2/1 14/2/1 15/2/1
f 17/3/1 16/3/1 15/3/1
f 18/3/1 16/3/1 17/3/1
f 21/3/1 20/3/1 19/3/1
f 22/3/1 20/3/1 21/3/1
f 25/1/1 24/1/1 23/1/1
f 26/1/1 24/1/1 25/1/1
f 27/1/2 28/1/2 29/1/2
f 29/1/2 28/1/2 30/1/2
f 31/3/2 32/3/2 33/3/2
f 33/3/2 32/3/2 34/3/2
f 35/2/2 36/2/2 37/2/2
f 37/2/2 36/2/2 38/2/2
f 37/3/2 38/3/2 39/3/2
f 39/3/2 38/3/2 40/3/2
f 41/3/2 42/3/2 43/3/2
f 43/3/2 42/3/2 44/3/2
f 43/2/2 44/2/2 45/2/2
f 45/2/2 44/2/2 46/2/2
f 45/3/2 46/3/2 47/3/2
f 47/3/2 46/3/2 48/3/2
f 47/2/2 48/2/2 49/2/2
f 49/2/2 48/2/2 50/2/2
f 49/3/2 50/3/2 51/3/2
f 51/3/2 50/3/2 52/3/2
f 59/3/3 54/3/3 53/3/3
f 60/2/3 55/2/3 54/2/3
f 60/3/3 54/3/3 59/3/3
f 61/3/3 56/3/3 55/3/3
f 61/2/3 55/2/3 60/2/3
f 62/2/3 57/2/3 56/2/3
f 62/3/3 56/3/3 61/3/3
f 63/3/3 58/3/3 57/3/3
f 63/2/3 57/2/3 62/2/3
f 64/3/3 58/3/3 63/3/3
f 68/2/3 66/2/3 65/2/3
f 69/3/3 67/3/3 66/3/3
f 69/2/3 66/2/3 68/2/3
f 70/3/3 67/3/3 69/3/3
f 73/3/3 72/3/3 71/3/3
f 74/3/3 72/3/3 73/3/3
f 77/1/3 76/1/3 75/1/3
f 78/1/3 76/1/3 77/1/3
f 79/1/4 80/1/4 81/1/4
f 81/1/4 80/1/4 82/1/4
f 83/3/4 84/3/4 85/3/4
f 85/3/4 84/3/4 86/3/4
f 87/2/4 88/2/4 90/2/4
f 88/3/4 89/3/4 91/3/4
f 90/2/4 88/2/4 91/2/4
f 91/3/4 89/3/4 92/3/4
f 93/3/4 94/3/4 99/3/4
f 94/2/4 95/2/4 100/2/4
f 99/3/4 94/3/4 100/3/4
f 95/3/4 96/3/4 101/3/4
f 100/2/4 95/2/4 101/2/4
f 96/2/4 97/2/4 102/2/4
f 101/3/4 96/3/4 102/3/4
f 97/3/4 98/3/4 103/3/4
f 102/2/4 97/2/4 103/2/4
f 103/3/4 98/3/4 104/3/4
f 107/1/5 106/1/5 105/1/5
f 108/1/5 106/1/5 107/1/5
f 111/3/5 110/3/5 109/3/5
f 112/3/5 110/3/5 111/3/5
f 113/3/5 111/3/5 109/3/5
f 114/3/5 110/3/5 112/3/5
f 115/3/5 113/3/5 109/3/5
f 115/3/5 114/3/5 113/3/5
f 116/3/5 110/3/5 114/3/5
f 116/3/5 114/3/5 115/3/5
f 119/3/5 118/3/5 117/3/5
f 120/3/5 118/3/5 119/3/5
f 121/3/5 119/3/5 117/3/5
f 122/3/5 118/3/5 120/3/5
f 123/3/5 121/3/5 117/3/5
f 123/3/5 122/3/5 121/3/5
f 124/3/5 118/3/5 122/3/5
f 124/3/5 122/3/5 123/3/5
f 125/3/6 126/3/6 127/3/6
f 127/3/6 126/3/6 128/3/6
f 125/3/6 127/3/6 129/3/6
f 128/3/6 126/3/6 130/3/6
f 125/3/6 129/3/6 131/3/6
f 129/3/6 130/3/6 131/3/6
f 130/3/6 126/3/6 132/3/6
f 131/3/6 130/3/6 132/3/6
f 133/3/6 134/3/6 135/3/6
f 135/3/6 134/3/6 136/3/6
